<svg version="1.1" xmlns="http://www.w3.org/2000/svg" xmlns:xlink="http://www.w3.org/1999/xlink" preserveAspectRatio="xMidYMid meet" viewBox="848 375 452 154"><g data-item-type="text" data-item="Business" id="logo__item--business" class="logo__item">
        <g class="logo__item__inner" transform="translate(992.984375 488.4849368920511) scale(3.499482995695114 3.499482995695114) rotate(0 0 0)">
            <text data-part-id="logo__item--business" dy="0" dominant-baseline="auto" alignment-baseline="auto" font-family="Finger Paint" font-size="32px" fill="#006ab3" letter-spacing="0" font-weight="normal" font-style="normal" data-font-family="Finger Paint" data-font-weight="normal" data-font-style="normal" data-ttf-url="/builder_assets/fontsttf/font-montserrat-bold-normal.ttf" data-font-filename="finger-paint-normal-normal">Logic</text>
        </g>
    </g><g data-item-type="image" data-item="Image" data-logo-item="" id="logo__item--logo_0" class="logo__item">
        <g class="logo__item__inner" transform="translate(858.3235450328134 384.5) scale(0.8813807706993613 0.8813807706993613) rotate(0 0 0)">

            <g>
                <filter id="logo__item--logo_0__0_Effect" x="-100%" y="-100%" width="300%" height="300%"><feOffset in="SourceAlpha" dx="0" dy="0" result="offsetShadow"></feOffset><feGaussianBlur in="offsetShadow" stdDeviation="7" result="shadow"></feGaussianBlur><feMerge><feMergeNode in="shadow"></feMergeNode><feMergeNode in="SourceGraphic"></feMergeNode></feMerge></filter><path fill="#FEC334" d="M92.5,93c9.3-9.3,9.3-24.4,0-33.6c-9.3-9.3-24.4-9.3-33.7,0c-9.3,9.3-9.3,24.4,0,33.6   C68.1,102.3,83.2,102.3,92.5,93L92.5,93z" data-part-id="logo__item--logo_0__0" filter="url(#logo__item--logo_0__0_Effect)" data-filter-shadow="" data-filter-shadow-distance="0" data-filter-shadow-angle="45" vector-effect="non-scaling-stroke" stroke="#ffe800" stroke-width="1"></path>
                <linearGradient id="logo__item--logo_0__1" gradientUnits="objectBoundingBox" x1="0.5" y1="0" x2="0.5" y2="1"><stop offset="0" style="stop-color:#FEC334"></stop><stop offset="1" style="stop-color:#999999"></stop></linearGradient><filter id="logo__item--logo_0__1_Effect" x="-100%" y="-100%" width="300%" height="300%"><feOffset in="SourceAlpha" dx="0.00" dy="0.00" result="offsetShadow"></feOffset><feGaussianBlur in="offsetShadow" stdDeviation="7" result="shadow"></feGaussianBlur><feMerge><feMergeNode in="shadow"></feMergeNode><feMergeNode in="SourceGraphic"></feMergeNode></feMerge></filter><path fill="#E70018" d="M101.7,135.7c0.4,0.5,0.8,1,1.3,1.4c9.3,9.3,24.4,9.3,33.7,0c9.3-9.3,9.3-24.3,0-33.7   c-0.3-0.3-0.6-0.6-1-0.9c-17.9-18.2-18.1-34.4-0.4-52.6c0.5-0.4,0.9-0.8,1.4-1.3c9.3-9.3,9.3-24.4,0-33.7c-9.3-9.3-24.4-9.3-33.7,0   c-9.3,9.3-9.3,24.4,0,33.6c0.4,0.5,0.9,0.9,1.4,1.3c17.7,18.2,17.5,34.3-0.4,52.6c-0.3,0.3-0.7,0.6-1,0.9c-0.5,0.5-0.9,0.9-1.3,1.4   c-18.2,17.7-34.3,17.5-52.6-0.5c-0.3-0.3-0.5-0.6-0.8-0.9c-9.3-9.3-24.4-9.3-33.7,0c-9.3,9.3-9.3,24.4,0,33.7   c9.3,9.3,24.4,9.3,33.7,0c0.3-0.3,0.6-0.6,0.9-1C67.4,118.3,83.5,118.2,101.7,135.7L101.7,135.7z" data-part-id="logo__item--logo_0__1" data-filter-shadow="" data-filter-shadow-distance="0" data-filter-shadow-angle="45" filter="url(#logo__item--logo_0__1_Effect)"></path>
            </g>

        </g>
    </g></svg>